#!OML:ASF H:\Male1\Project 1\Capture day 1\Session 1\Male1.ASF
:FULLY-SPECIFIED
:DEGREES
289
root 13.1753 14.4921 0.394687 154.746 -74.7599 -186.033
lowerback 27.8373 3.28839 -2.29714
upperback 15.2558 1.60975 -1.3865
thorax 1.70383 -0.170368 -0.642399
lowerneck -8.86019 1.19777 5.52337
upperneck 4.2418 0.916222 0.145573
head 2.95484 0.548709 -0.874157
rclavicle -5.98342e-014 2.8625e-014
rhumerus -38.677 21.4306 -90.2819
rradius 64.4084
rwrist -41.5153
rhand -40.8322 14.0099
rfingers 7.12502
rthumb -13.77 -15.5144
lclavicle -5.98342e-014 2.8625e-014
lhumerus -15.9309 -12.9303 76.8635
lradius 59.7767
lwrist 16.2445
lhand -27.8305 17.1255
lfingers 7.12502
lthumb -1.22219 47.1017
rfemur -42.6988 -13.3904 23.6164
rtibia 104.538
rfoot 17.8907 -14.9268
rtoes -27.9508
lfemur -40.7056 20.7748 -15.6095
ltibia 109.914
lfoot 9.10612 4.53872
ltoes -9.32862
290
root 13.179 14.4959 0.396427 154.551 -74.8349 -185.908
lowerback 27.7812 3.33527 -2.40963
upperback 15.2596 1.64641 -1.44586
thorax 1.73222 -0.156316 -0.651945
lowerneck -8.96248 1.05949 5.33047
upperneck 4.27262 0.732037 0.360898
head 2.97528 0.462272 -0.779443
rclavicle 4.17448e-015 3.18055e-015
rhumerus -37.5129 21.7052 -89.7984
rradius 64.7612
rwrist -41.4155
rhand -40.3819 12.7091
rfingers 7.12502
rthumb -13.3359 -16.8442
lclavicle 4.17448e-015 3.18055e-015
lhumerus -15.2697 -13.095 77.308
lradius 60.2946
lwrist 15.8603
lhand -27.4174 17.4419
lfingers 7.12502
lthumb -0.823259 47.4201
rfemur -42.6156 -13.5988 23.5598
rtibia 104.511
rfoot 17.7308 -15.4546
rtoes -27.4931
lfemur -40.5682 20.5938 -15.224
ltibia 110.099
lfoot 9.09841 4.7023
ltoes -7.4177
291
root 13.183 14.5004 0.39816 154.475 -74.9422 -185.91
lowerback 27.7387 3.37878 -2.53047
upperback 15.271 1.67454 -1.51519
thorax 1.76342 -0.147444 -0.665789
lowerneck -9.06184 0.935789 5.18372
upperneck 4.28118 0.567985 0.502623
head 2.99009 0.383682 -0.716057
rclavicle -1.76918e-014 3.10104e-014
rhumerus -36.367 22.0027 -89.3528
rradius 65.1257
rwrist -41.3537
rhand -39.6252 11.4577
rfingers 7.12502
rthumb -12.6065 -18.1419
lclavicle -1.76918e-014 3.10104e-014
lhumerus -14.674 -13.4183 77.7673
lradius 60.8032
lwrist 15.5222
lhand -26.8102 17.6153
lfingers 7.12502
lthumb -0.236767 47.5949
rfemur -42.5116 -13.7951 23.4426
rtibia 104.481
rfoot 17.344 -15.8793
rtoes -27.2895
lfemur -40.4092 20.331 -14.8969
ltibia 110.219
lfoot 9.07357 4.9047
ltoes -4.8195
292
root 13.1869 14.505 0.399772 154.438 -75.0756 -185.952
lowerback 27.707 3.41063 -2.64279
upperback 15.291 1.6878 -1.58642
thorax 1.80006 -0.146235 -0.683036
lowerneck -9.14921 0.828639 5.05898
upperneck 4.26954 0.429162 0.585325
head 2.99749 0.315563 -0.674578
rclavicle -3.16068e-014 -2.22639e-014
rhumerus -35.2395 22.3029 -88.9379
rradius 65.5079
rwrist -41.3099
rhand -38.5764 10.2829
rfingers 7.12502
rthumb -11.5951 -19.3763
lclavicle -3.16068e-014 -2.22639e-014
lhumerus -14.1609 -13.8785 78.235
lradius 61.3049
lwrist 15.2124
lhand -26.0941 17.7167
lfingers 7.12502
lthumb 0.454854 47.696
rfemur -42.3984 -13.9742 23.297
rtibia 104.454
rfoot 16.8524 -16.1348
rtoes -27.4481
lfemur -40.2297 20.0163 -14.6153
ltibia 110.272
lfoot 9.04403 5.09502
ltoes -2.22821
293
root 13.1905 14.5086 0.401012 154.35 -75.2194 -185.934
lowerback 27.6715 3.42869 -2.72333
upperback 15.3184 1.69082 -1.65008
thorax 1.84778 -0.148806 -0.707416
lowerneck -9.22106 0.741877 4.94469
upperneck 4.24292 0.320448 0.631859
head 2.99817 0.261002 -0.645161
rclavicle -9.54166e-015 -1.59028e-015
rhumerus -34.1364 22.5743 -88.5506
rradius 65.9167
rwrist -41.2258
rhand -37.3188 9.16537
rfingers 7.12502
rthumb -10.3822 -20.5583
lclavicle -9.54166e-015 -1.59028e-015
lhumerus -13.7374 -14.4731 78.7045
lradius 61.7878
lwrist 14.8934
lhand -25.3541 17.8802
lfingers 7.12502
lthumb 1.16953 47.8568
rfemur -42.2924 -14.1169 23.1701
rtibia 104.436
rfoot 16.402 -16.2186
rtoes -27.9577
lfemur -40.0369 19.7124 -14.354
ltibia 110.269
lfoot 9.02273 5.22866
ltoes -0.318003
294
root 13.1933 14.5101 0.401635 154.111 -75.3513 -185.745
lowerback 27.619 3.43272 -2.74892
upperback 15.3496 1.69097 -1.69497
thorax 1.90855 -0.149765 -0.74136
lowerneck -9.28232 0.676253 4.82716
upperneck 4.21403 0.242357 0.663512
head 2.99703 0.221048 -0.618393
rclavicle 1.59028e-014 -1.43125e-014
rhumerus -33.0639 22.7913 -88.1918
rradius 66.3511
rwrist -41.0559
rhand -35.9677 8.07501
rfingers 7.12502
rthumb -9.07868 -21.7096
lclavicle 1.59028e-014 -1.43125e-014
lhumerus -13.4023 -15.1852 79.1737
lradius 62.2288
lwrist 14.5292
lhand -24.6966 18.228
lfingers 7.12502
lthumb 1.80455 48.2001
rfemur -42.2098 -14.2139 23.113
rtibia 104.426
rfoot 16.0996 -16.1473
rtoes -28.7139
lfemur -39.8597 19.4893 -14.0795
ltibia 110.232
lfoot 8.99519 5.24649
ltoes 0.502539
295
root 13.1954 14.5097 0.401334 153.641 -75.4472 -185.3
lowerback 27.5447 3.42348 -2.70923
upperback 15.3827 1.69238 -1.70935
thorax 1.98212 -0.146636 -0.778771
lowerneck -9.30782 0.618657 4.65887
upperneck 4.17842 0.182039 0.719896
head 2.98687 0.189817 -0.573563
rclavicle 3.18055e-014 1.27222e-014
rhumerus -32.0277 22.9732 -87.8671
rradius 66.8051
rwrist -40.8305
rhand -34.6466 7.02149
rfingers 7.12502
rthumb -7.80365 -22.8145
lclavicle 3.18055e-014 1.27222e-014
lhumerus -13.1469 -15.9759 79.6461
lradius 62.6003
lwrist 14.1132
lhand -24.2907 18.75
lfingers 7.12502
lthumb 2.19665 48.7185
rfemur -42.1487 -14.2679 23.1659
rtibia 104.414
rfoot 15.9629 -15.985
rtoes -29.4452
lfemur -39.7233 19.3852 -13.7612
ltibia 110.183
lfoot 8.97121 5.12477
ltoes 0.128581
296
root 13.1967 14.5081 0.400034 152.966 -75.5028 -184.625
lowerback 27.4514 3.40396 -2.60742
upperback 15.414 1.69788 -1.69898
thorax 2.06311 -0.137618 -0.82489
lowerneck -9.34518 0.586787 4.48003
upperneck 4.16517 0.156303 0.777749
head 2.98753 0.176194 -0.524639
rclavicle -2.48481e-014 1.74931e-014
rhumerus -31.0386 23.1473 -87.5978
rradius 67.2698
rwrist -40.6293
rhand -33.4444 6.03154
rfingers 7.12502
rthumb -6.6432 -23.8443
lclavicle -2.48481e-014 1.74931e-014
lhumerus -12.958 -16.8305 80.1139
lradius 62.872
lwrist 13.6343
lhand -24.3034 19.3293
lfingers 7.12502
lthumb 2.1843 49.2978
rfemur -42.1011 -14.2933 23.3237
rtibia 104.391
rfoot 15.9355 -15.8102
rtoes -29.9113
lfemur -39.6349 19.3876 -13.4137
ltibia 110.127
lfoot 8.94756 4.88359
ltoes -1.11492
297
root 13.1974 14.5069 0.397962 152.253 -75.5325 -183.899
lowerback 27.3549 3.38279 -2.47851
upperback 15.4355 1.70912 -1.68233
thorax 2.13502 -0.123059 -0.880683
lowerneck -9.40328 0.579826 4.31519
upperneck 4.20258 0.160919 0.825588
head 3.01045 0.178644 -0.479951
rclavicle -4.09496e-014 1.59028e-014
rhumerus -30.1226 23.3369 -87.4101
rradius 67.7338
rwrist -40.5073
rhand -32.4354 5.08599
rfingers 7.12502
rthumb -5.66907 -24.8182
lclavicle -4.09496e-014 1.59028e-014
lhumerus -12.8388 -17.7309 80.5715
lradius 63.0194
lwrist 13.0221
lhand -24.5868 19.9911
lfingers 7.12502
lthumb 1.91062 49.9623
rfemur -42.0551 -14.3185 23.5274
rtibia 104.352
rfoot 15.9803 -15.6089
rtoes -30.3038
lfemur -39.5875 19.442 -13.0853
ltibia 110.056
lfoot 8.91107 4.61227
ltoes -2.35294
